<?xml version="1.0" standalone="no"?>
<!DOCTYPE svg PUBLIC "-//W3C//DTD SVG 20010904//EN"
 "http://www.w3.org/TR/2001/REC-SVG-20010904/DTD/svg10.dtd">
<svg version="1.0" xmlns="http://www.w3.org/2000/svg"
 width="1024.000000pt" height="1024.000000pt" viewBox="0 0 1024.000000 1024.000000"
 preserveAspectRatio="xMidYMid meet">
<metadata>
</metadata>
<rect width="100%" height="100%" fill="white"/>
<g transform="translate(0.000000,1024.000000) scale(0.100000,-0.100000)"
fill="#FF4906" stroke="none">
<path d="M2000 10225 c-270 -38 -502 -110 -742 -232 -222 -112 -379 -225 -562
-403 -204 -198 -339 -384 -461 -634 -108 -219 -169 -409 -212 -656 -17 -100
-18 -248 -18 -3180 0 -2932 1 -3080 18 -3180 43 -247 104 -437 212 -656 122
-250 257 -436 461 -634 192 -187 349 -298 589 -416 218 -106 408 -168 655
-211 100 -17 248 -18 3180 -18 2932 0 3080 1 3180 18 247 43 437 105 655 211
240 118 397 229 589 416 204 198 339 384 461 634 108 219 169 409 212 656 17
100 18 248 18 3180 0 2932 -1 3080 -18 3180 -43 247 -105 437 -211 655 -118
240 -229 397 -416 589 -198 204 -384 339 -634 461 -210 103 -373 157 -626 208
l-105 21 -3065 2 c-2497 2 -3083 0 -3160 -11z m2509 -1040 c340 -50 660 -192
922 -411 143 -119 299 -299 385 -443 20 -34 38 -61 41 -61 2 0 32 23 66 52
410 342 995 450 1507 279 247 -83 424 -193 616 -385 192 -192 302 -369 385
-616 107 -320 107 -680 0 -1000 -83 -247 -193 -424 -385 -616 -192 -192 -369
-302 -616 -385 -320 -107 -680 -107 -1000 0 -241 81 -423 194 -606 376 -67 66
-132 135 -146 153 l-25 33 -74 -76 c-289 -300 -660 -490 -1070 -550 -137 -19
-381 -19 -518 0 -814 119 -1447 752 -1566 1566 -19 137 -19 381 0 518 118 809
747 1442 1555 1565 130 19 396 20 529 1z m2921 -4009 c279 -66 484 -179 680
-376 200 -200 318 -415 377 -690 16 -78 18 -147 18 -810 0 -663 -2 -732 -18
-810 -59 -275 -177 -490 -377 -690 -200 -200 -415 -318 -690 -377 -79 -17
-162 -18 -1270 -18 -1303 0 -1236 -3 -1430 61 -368 122 -690 423 -831 778 -18
44 -34 83 -35 85 -2 2 -271 -132 -598 -297 -327 -165 -627 -313 -668 -328 -59
-22 -95 -28 -188 -32 -139 -5 -205 9 -330 70 -67 32 -102 58 -165 122 -82 82
-124 149 -168 263 l-22 58 -3 1082 c-3 1201 -5 1147 63 1288 150 309 517 455
830 330 33 -14 323 -158 644 -320 321 -163 588 -297 593 -298 5 -1 26 40 47
90 73 176 175 326 313 459 207 200 445 321 728 369 59 10 333 13 1250 11 1088
-2 1181 -3 1250 -20z"/>
<path d="M4125 8449 c-44 -5 -120 -20 -170 -34 -510 -145 -848 -639 -795
-1160 53 -522 463 -932 985 -985 595 -61 1134 383 1195 985 60 593 -383 1133
-981 1195 -111 11 -119 11 -234 -1z"/>
<path d="M6838 7929 c-388 -41 -698 -353 -736 -740 -54 -535 382 -971 917
-917 389 39 700 350 739 739 29 284 -82 558 -298 734 -118 96 -275 166 -406
179 -117 13 -140 13 -216 5z"/>
<path d="M5085 4489 c-215 -26 -417 -167 -513 -359 -79 -159 -77 -137 -77
-830 0 -693 -2 -671 77 -830 59 -119 169 -229 288 -288 165 -82 81 -77 1290
-77 1209 0 1125 -5 1290 77 119 59 229 169 288 288 79 159 77 137 77 830 0
693 2 671 -77 830 -59 119 -169 229 -288 288 -165 82 -77 76 -1245 78 -572 1
-1071 -2 -1110 -7z"/>
<path d="M2520 4059 c-33 -13 -68 -47 -88 -84 -15 -27 -17 -96 -20 -663 -2
-415 1 -645 8 -671 14 -51 43 -87 93 -112 81 -42 85 -40 707 277 l565 289 3
200 2 200 -577 288 c-513 230 -583 288 -623 287 -25 -1 -56 -6 -70 -11z"/>
</g>
</svg>
