<?xml version="1.0" encoding="UTF-8"?>
<svg version="1.1" xmlns="http://www.w3.org/2000/svg" viewBox="0 0 368 320" preserveAspectRatio="xMidYMid meet" width="330px">
<path d="M0 0 C20.83755995 16.27344183 31.78138191 40.14265524 35 66.0625 C37.03261675 86.69663973 38.91550505 120.18924242 27 138.0625 C26.01 138.0625 25.02 138.0625 24 138.0625 C23.85111328 139.35027344 23.85111328 139.35027344 23.69921875 140.6640625 C22.93029491 144.40129009 21.64432683 147.09734776 19.8125 150.4375 C19.18988281 151.57445312 18.56726563 152.71140625 17.92578125 153.8828125 C16.2741752 156.60980505 14.56654948 158.90233222 12.5 161.3125 C10.18650769 164.29462722 9.99102756 164.84879149 10.15991211 168.87133789 C11.13290446 175.58749962 12.5646413 182.22855234 13.94140625 188.87109375 C14.23184773 190.28825171 14.52187464 191.70549469 14.81150818 193.12281799 C15.56925286 196.82654259 16.33144939 200.52933501 17.0949707 204.23187256 C18.32136804 210.18150068 19.54213818 216.1322804 20.76057243 222.08354378 C21.18637462 224.15906763 21.61484378 226.23402818 22.04359436 228.3089447 C22.30063644 229.56107254 22.55767853 230.81320038 22.82250977 232.10327148 C23.16440086 233.76132057 23.16440086 233.76132057 23.51319885 235.4528656 C24 238.0625 24 238.0625 24 240.0625 C24.99 240.0625 25.98 240.0625 27 240.0625 C27.10957031 239.48959229 27.21914063 238.91668457 27.33203125 238.32641602 C28.46249893 232.42075636 29.5979742 226.51607446 30.73724365 220.61210632 C31.4953515 216.68284836 32.25159399 212.75323972 33.00585938 208.82324219 C33.90295178 204.15049074 34.80430558 199.47857578 35.70800781 194.80709839 C36.07005489 192.93197583 36.43072674 191.05658723 36.79003906 189.18093872 C37.29912272 186.52486156 37.81306059 183.86976666 38.328125 181.21484375 C38.48210754 180.40558441 38.63609009 179.59632507 38.79473877 178.76254272 C39.886005 173.176495 39.886005 173.176495 41 172.0625 C41.02096074 170.10416803 40.9904738 168.14522757 40.9375 166.1875 C40.87699467 158.33045085 41.45888403 151.14473194 45 144.0625 C41.7 141.4225 38.4 138.7825 35 136.0625 C35.33 134.4125 35.66 132.7625 36 131.0625 C39.20092666 130.74411298 40.68668659 130.8672395 43.45703125 132.59375 C44.23433594 133.2434375 45.01164062 133.893125 45.8125 134.5625 C46.60269531 135.2121875 47.39289063 135.861875 48.20703125 136.53125 C48.79871094 137.0365625 49.39039063 137.541875 50 138.0625 C50.639375 137.258125 51.27875 136.45375 51.9375 135.625 C54 133.0625 54 133.0625 55 132.0625 C61.35294118 132.41544118 61.35294118 132.41544118 63.875 134.9375 C65 137.0625 65 137.0625 66 140.0625 C68.31 140.3925 70.62 140.7225 73 141.0625 C73.226875 141.84625 73.45375 142.63 73.6875 143.4375 C74.7410142 146.2887718 74.7410142 146.2887718 77.5 147 C78.325 147.350625 79.15 147.70125 80 148.0625 C80.70381157 150.04973268 81.3711811 152.05027953 82 154.0625 C83.99704549 155.2723502 83.99704549 155.2723502 86 156.0625 C85.8364502 156.63677734 85.67290039 157.21105469 85.50439453 157.80273438 C84.95992302 160.3832188 84.70765159 162.43455356 85 165.0625 C87.15473809 167.90945708 89.89234671 169.64758646 92.875 171.5625 C93.63425781 172.08585938 94.39351563 172.60921875 95.17578125 173.1484375 C96.5742814 174.11068538 97.9822054 175.05947268 99.40185547 175.99023438 C101 177.0625 101 177.0625 102 178.0625 C102.04063832 179.72867115 102.042721 181.39638095 102 183.0625 C98.98693233 183.51353019 96.82350448 183.58320616 94.1953125 181.92138672 C91.57717959 179.77344066 89.07050131 177.51921382 86.56640625 175.24023438 C83.62565153 172.69939824 81.80006029 171.1907925 77.90625 170.56640625 C72.93104436 173.12756722 70.96076951 176.91824679 69 182.0625 C68.00229471 187.14195818 67.51035758 192.18644686 67.1242981 197.34414673 C66.80396296 201.57706074 66.39366801 205.80148504 65.9921875 210.02734375 C65.9132576 210.87689133 65.8343277 211.7264389 65.75300598 212.60173035 C60.34110008 269.48145109 60.34110008 269.48145109 44 285.0625 C36.66881024 289.96782989 29.80709567 291.96911279 21 291.0625 C12.03076935 289.21981153 5.84975795 286.0995748 -1 280.0625 C-1.33 286.6625 -1.66 293.2625 -2 300.0625 C-50.51 300.0625 -99.02 300.0625 -149 300.0625 C-148.20139067 292.87501607 -147.59089659 289.25812229 -145 283.0625 C-146.12921875 283.38347656 -147.2584375 283.70445312 -148.421875 284.03515625 C-159.00575434 286.66250888 -171.49996556 286.6265927 -181.3515625 281.7421875 C-189.06062403 276.85295968 -194.64226491 271.051681 -199 263.0625 C-200.1446875 264.238125 -200.1446875 264.238125 -201.3125 265.4375 C-205.24556414 269.27909753 -207.49160034 270.29417555 -212.96484375 270.62109375 C-216.15831034 269.74457605 -217.11975684 267.74152628 -219 265.0625 C-220.26857099 262.47614749 -221.28224884 259.81318613 -222.29296875 257.1171875 C-222.59605453 256.33156937 -222.89914032 255.54595123 -223.21141052 254.73652649 C-223.86722583 253.0336552 -224.51896194 251.32920848 -225.16705322 249.62338257 C-226.56495636 245.9440102 -227.98224961 242.27219914 -229.39813232 238.59971619 C-230.14107284 236.67194405 -230.88295976 234.74376556 -231.62384033 232.81520081 C-235.2056789 223.49721048 -238.8753863 214.21500337 -242.55926514 204.9369812 C-243.62366554 202.25336451 -244.68477309 199.56847114 -245.74462891 196.88305664 C-248.86322203 188.9815222 -251.98722361 181.08265335 -255.15405273 173.20030212 C-256.48563781 169.87956909 -257.80640084 166.55460016 -259.12493896 163.22866821 C-259.7417872 161.68012255 -260.36344641 160.13348318 -260.99029541 158.58895874 C-261.85120819 156.46643818 -262.69494135 154.33781353 -263.53515625 152.20703125 C-264.013479 151.01440674 -264.49180176 149.82178223 -264.98461914 148.59301758 C-266.21125799 144.327948 -266.46971036 141.48402122 -266 137.0625 C-263.39939984 133.3175575 -260.13650462 132.04743255 -255.95703125 130.44140625 C-254.22356445 129.75014648 -254.22356445 129.75014648 -252.45507812 129.04492188 C-250.01783052 128.0948527 -247.57768364 127.15218927 -245.13476562 126.21679688 C-243.98298828 125.75466797 -242.83121094 125.29253906 -241.64453125 124.81640625 C-240.58596924 124.40720947 -239.52740723 123.9980127 -238.43676758 123.57641602 C-235.74422581 122.2910317 -235.74422581 122.2910317 -235.3269043 119.48803711 C-235.21902588 118.68760986 -235.11114746 117.88718262 -235 117.0625 C-233.03533587 115.99474776 -231.03144641 114.99696535 -229 114.0625 C-228.525625 113.381875 -228.05125 112.70125 -227.5625 112 C-225.26283577 109.14841636 -222.45670286 109.00523714 -219 108.0625 C-218.01 106.5775 -218.01 106.5775 -217 105.0625 C-214.125 104.625 -214.125 104.625 -211 105.0625 C-209.64691687 106.37578657 -208.31129922 107.70749081 -207 109.0625 C-205.09415804 108.85873822 -205.09415804 108.85873822 -203 108.0625 C-196.7689305 107.50615451 -196.7689305 107.50615451 -194.00073242 109.5090332 C-191.17867043 113.11073502 -189.95236189 116.92705518 -188.48828125 121.23046875 C-188.16227432 122.1581456 -187.8362674 123.08582245 -187.50038147 124.04161072 C-186.42628034 127.10720549 -185.36897565 130.17829068 -184.3125 133.25 C-183.57001481 135.38619766 -182.82667539 137.52209859 -182.08251953 139.65771484 C-180.91946594 142.9987254 -179.75826686 146.34032992 -178.60223389 149.68377686 C-176.19914772 156.63390925 -173.76189182 163.57071851 -171.29148865 170.49720764 C-169.69411434 174.97788167 -168.1079013 179.46246284 -166.52328491 183.94766235 C-165.75989795 186.1015266 -164.99219858 188.25386744 -164.22012329 190.40463257 C-163.14154201 193.41377167 -162.08052263 196.42856683 -161.0234375 199.4453125 C-160.53883812 200.77815529 -160.53883812 200.77815529 -160.04444885 202.13792419 C-158.42795827 206.81122114 -157.4692536 210.16485641 -159 215.0625 C-160.8203125 217.7734375 -160.8203125 217.7734375 -163.125 220.4375 C-163.93066406 221.37980469 -164.73632812 222.32210937 -165.56640625 223.29296875 C-166.36949219 224.20691406 -167.17257813 225.12085938 -168 226.0625 C-168.71027344 226.88363281 -169.42054688 227.70476562 -170.15234375 228.55078125 C-171.75707268 230.3983526 -173.37193263 232.23550478 -175 234.0625 C-173.62059045 237.10006936 -173.62059045 237.10006936 -171.25 239.375 C-168.0227516 240.36110368 -166.21368987 240.11186812 -163 239.0625 C-158.94162329 234.76075224 -156.19477418 230.1740773 -153.5 224.9375 C-153.08057129 224.13272217 -152.66114258 223.32794434 -152.22900391 222.4987793 C-147.78811801 213.85620647 -143.74429913 205.02661716 -139.68432617 196.20092773 C-135.94101795 188.06650561 -132.12305515 179.99366103 -128.01416016 172.03759766 C-126.85280071 169.77582636 -125.71464327 167.50286361 -124.57421875 165.23046875 C-112.11571042 140.65595405 -112.11571042 140.65595405 -100 135.0625 C-94.21426195 133.43860377 -89.57944928 134.04440133 -84 136.0625 C-83.67 134.4125 -83.34 132.7625 -83 131.0625 C-84.2684375 130.62550781 -84.2684375 130.62550781 -85.5625 130.1796875 C-96.73006822 126.14413444 -106.79166107 120.53018802 -112.2890625 109.46875 C-119.97249945 90.67473157 -114.36910554 74.59923464 -106.94140625 56.77172852 C-103.5503494 48.40845459 -101.62540171 39.91666196 -100 31.0625 C-100.92554688 30.93101563 -101.85109375 30.79953125 -102.8046875 30.6640625 C-107.25682614 29.82588481 -110.47124123 28.10569823 -113.23046875 24.41796875 C-116.87963962 18.37114771 -118.10046833 12.09032777 -116.57421875 5.1171875 C-113.80087349 -3.56015043 -106.73795206 -10.40238723 -99 -14.9375 C-68.49436245 -28.36684536 -26.56590914 -18.62581898 0 0 Z " fill="#070605" transform="translate(266,19.9375)"/>
<path d="M0 0 C5.58670947 5.74189584 7.27077804 13.3176699 8.9375 20.9375 C9.17734619 22.00693848 9.41719238 23.07637695 9.66430664 24.17822266 C12.10271113 35.26764249 14.34165823 46.40101988 16.55947876 57.53631592 C16.97783199 59.63546156 17.39854416 61.73413847 17.82162476 63.83233643 C18.42015089 66.81098491 19.00673404 69.79173757 19.58984375 72.7734375 C19.7728302 73.67656677 19.95581665 74.57969604 20.14434814 75.51019287 C20.38601715 76.76657562 20.38601715 76.76657562 20.63256836 78.04833984 C20.84857948 79.14316177 20.84857948 79.14316177 21.06895447 80.26010132 C21.27444373 82.58960306 21.09068229 84.12957509 20.25 86.3125 C18.00220103 87.98697373 15.84381231 89.40231841 13.4375 90.8125 C12.74205078 91.23321777 12.04660156 91.65393555 11.33007812 92.08740234 C9.80723969 93.00625284 8.28084485 93.91922776 6.75146484 94.82714844 C4.07329482 96.41742625 1.40522966 98.02379244 -1.26171875 99.6328125 C-6.08357629 102.53878758 -10.9139238 105.43025829 -15.75 108.3125 C-17.42542208 105.31742687 -18.14766903 102.75147068 -18.61962891 99.36035156 C-18.75962311 98.37963684 -18.89961731 97.39892212 -19.04385376 96.38848877 C-19.18664764 95.33731873 -19.32944153 94.28614868 -19.4765625 93.203125 C-19.62910492 92.12117859 -19.78164734 91.03923218 -19.93881226 89.92449951 C-20.4241233 86.47138348 -20.89967569 83.01700345 -21.375 79.5625 C-21.70248283 77.21996222 -22.03060019 74.87751305 -22.359375 72.53515625 C-23.16361344 66.79527843 -23.95984568 61.05433265 -24.75 55.3125 C-25.74 55.3125 -26.73 55.3125 -27.75 55.3125 C-28.11068883 64.75685238 -26.73318724 73.80886271 -25.375 83.125 C-25.15042353 84.70368823 -24.92646138 86.28246398 -24.703125 87.86132812 C-23.44859481 96.68821357 -22.12943104 105.5042377 -20.75 114.3125 C-16.86946387 114.3125 -16.14799763 114.2301725 -13.125 112.3125 C-9.75 110.3125 -9.75 110.3125 -7.75 110.3125 C-1.48083224 125.07164771 -1.75 134.48517836 -1.75 151.3125 C-45.64 151.3125 -89.53 151.3125 -134.75 151.3125 C-133.62505687 142.31295493 -133.62505687 142.31295493 -132.08276367 138.07861328 C-131.74078445 137.12673126 -131.39880524 136.17484924 -131.04646301 135.19412231 C-130.67405991 134.18389008 -130.3016568 133.17365784 -129.91796875 132.1328125 C-129.33549629 130.5213887 -129.33549629 130.5213887 -128.74125671 128.87741089 C-127.48073 125.39470917 -126.20900249 121.91620761 -124.9375 118.4375 C-124.07014813 116.04462517 -123.20377878 113.65139398 -122.33837891 111.2578125 C-120.61608555 106.49533699 -118.89064351 101.73402391 -117.16259766 96.97363281 C-114.20412153 88.81526498 -111.28026076 80.64489806 -108.3866272 72.46331787 C-107.64135554 70.35868767 -106.89149533 68.25573173 -106.14135742 66.15283203 C-105.69550521 64.8936593 -105.24992941 63.63438866 -104.8046875 62.375 C-104.42812012 61.31410156 -104.05155273 60.25320312 -103.66357422 59.16015625 C-102.82616018 56.54989506 -102.22255637 54.00998343 -101.75 51.3125 C-103.07 51.3125 -104.39 51.3125 -105.75 51.3125 C-110.37 64.1825 -114.99 77.0525 -119.75 90.3125 C-123.08229074 90.3125 -123.56181211 89.97490854 -126.0703125 88.01171875 C-126.68777344 87.52896484 -127.30523437 87.04621094 -127.94140625 86.54882812 C-128.57949219 86.03771484 -129.21757812 85.52660156 -129.875 85 C-130.52082031 84.50048828 -131.16664063 84.00097656 -131.83203125 83.48632812 C-136.62244156 79.69517531 -136.62244156 79.69517531 -137.75 76.3125 C-136.79967943 73.91393696 -135.788845 71.6933758 -134.62890625 69.3984375 C-134.29395645 68.71596954 -133.95900665 68.03350159 -133.61390686 67.33035278 C-132.52256516 65.11143026 -131.41773961 62.89952809 -130.3125 60.6875 C-129.1882283 58.41300766 -128.06698084 56.13704053 -126.94580078 53.86102295 C-126.21068755 52.3695788 -125.47436619 50.8787295 -124.73681641 49.38848877 C-122.18999278 44.23691937 -119.75313943 39.0440172 -117.375 33.8125 C-111.42719971 20.98198825 -104.54321591 6.54102793 -92.75 -1.8125 C-88.80367551 -2.96351131 -85.67634279 -2.91297044 -81.75 -1.6875 C-78.75 0.375 -78.75 0.375 -76.75 2.3125 C-77.08 3.529375 -77.41 4.74625 -77.75 6 C-79.3141541 13.17470684 -80.56533526 21.77639531 -77 28.5 C-74.26691807 31.91635241 -72.49627331 33.08564274 -68.1640625 33.6484375 C-63.81045569 33.70941239 -60.49438761 33.62149109 -56.4375 31.9375 C-49.2476481 24.91485395 -45.03307548 14.95692863 -43.37890625 5.1015625 C-43.0625 3.25 -43.0625 3.25 -41.75 0.3125 C-38.8947961 -1.32624837 -35.94827656 -1.99200954 -32.75 -2.6875 C-31.56470703 -2.99300781 -31.56470703 -2.99300781 -30.35546875 -3.3046875 C-19.52855071 -5.85837092 -9.64193521 -5.91664206 0 0 Z " fill="#EFE690" transform="translate(259.75,162.6875)"/>
<path d="M0 0 C20.83755995 16.27344183 31.78138191 40.14265524 35 66.0625 C37.03261675 86.69663973 38.91550505 120.18924242 27 138.0625 C26.01 138.0625 25.02 138.0625 24 138.0625 C23.89945313 138.92230469 23.79890625 139.78210938 23.6953125 140.66796875 C21.74082964 150.20979797 15.2083657 158.75965037 9 166.0625 C6.93043647 162.46127712 6.13771526 158.77325186 5.1875 154.75 C3.39019495 147.77645642 1.91678174 142.44771965 -4.4375 138.578125 C-15.51718341 132.84503301 -28.43743528 132.12531758 -40.5 135.5625 C-41.3146875 135.8409375 -42.129375 136.119375 -42.96875 136.40625 C-45 137.0625 -45 137.0625 -48 137.0625 C-48.83903974 132.82427362 -49.08767864 129.27090147 -48 125.0625 C-44.99801886 122.2464823 -41.83827704 120.31156911 -38.3359375 118.19140625 C-31.26598049 113.67954844 -28.23325961 107.78546793 -25.125 100.1875 C-22.64662373 94.44459584 -22.64662373 94.44459584 -19.765625 92.7421875 C-17.375 92.0625 -17.375 92.0625 -15.0546875 91.59375 C-11.84856893 90.76479159 -10.64815256 88.80942093 -9 86.0625 C-7.36145936 81.14687807 -7.37811676 76.18627712 -8 71.0625 C-9.62201909 67.83056643 -11.72339785 65.70080108 -15 64.0625 C-16.77187435 64.1195652 -18.54284091 64.20713464 -20.3125 64.3125 C-25.60707461 64.33318193 -25.60707461 64.33318193 -28.8125 62.125 C-29.534375 61.114375 -30.25625 60.10375 -31 59.0625 C-31.51304687 58.34964844 -32.02609375 57.63679688 -32.5546875 56.90234375 C-36.16396551 51.73019655 -39 47.52787199 -39 41.0625 C-38.39671875 40.85496094 -37.7934375 40.64742187 -37.171875 40.43359375 C-33.07942893 38.8560218 -29.78692226 37.54749462 -27.375 33.75 C-25.81568451 29.56819936 -25.82703252 27.33545297 -27 23.0625 C-28.98575286 20.6706437 -28.98575286 20.6706437 -32.8125 20.5625 C-36.36144858 20.67822658 -36.92292323 20.99741295 -39.8125 23.4375 C-42.70444444 27.50185434 -43.83580677 32.2732173 -45 37.0625 C-62.12922631 37.86710875 -79.65564888 36.6112668 -94 26.0625 C-99.07452966 21.37547988 -102.42819679 16.98343632 -103.4375 10.0625 C-102.85147504 6.04404316 -100.91707399 4.76079344 -98 2.0625 C-98 1.0725 -98 0.0825 -98 -0.9375 C-100.31 -0.6075 -102.62 -0.2775 -105 0.0625 C-107.65713063 5.96133 -108.25059604 12.18178444 -106.2421875 18.4140625 C-104.37409659 22.34146622 -102.13520082 25.03927064 -99 28.0625 C-99 29.0525 -99 30.0425 -99 31.0625 C-104.44250504 30.6270996 -107.80370384 29.60603898 -112 26.0625 C-116.42270293 20.13269766 -117.49274175 14.33044085 -117 7.0625 C-115.03570725 -1.91197514 -108.52598817 -8.41306012 -101.24609375 -13.62109375 C-72.25796691 -30.61065678 -25.86341869 -18.13329076 0 0 Z " fill="#6D6D6D" transform="translate(266,19.9375)"/>
<path d="M0 0 C2.46525149 2.36275744 3.63045351 4.86245864 4.80078125 8.0390625 C5.66865068 9.92540606 5.66865068 9.92540606 7.89453125 10.4453125 C8.5184375 10.53296875 9.14234375 10.620625 9.78515625 10.7109375 C9.29015625 7.2459375 9.29015625 7.2459375 8.78515625 3.7109375 C10.76515625 3.3809375 12.74515625 3.0509375 14.78515625 2.7109375 C17.6679046 9.72401443 20.27009901 16.80016612 22.7265625 23.97265625 C23.09117081 25.03002487 23.45577911 26.08739349 23.83143616 27.17680359 C25.00578096 30.5832375 26.17689041 33.99077204 27.34765625 37.3984375 C28.95913133 42.08265498 30.57241129 46.766246 32.1875 51.44921875 C32.58332275 52.59700806 32.97914551 53.74479736 33.38696289 54.92736816 C35.68443497 61.57371192 38.01876971 68.20470145 40.4140625 74.81640625 C40.67762039 75.54617172 40.94117828 76.27593719 41.21272278 77.02781677 C42.39206772 80.2898392 43.58124523 83.54728024 44.78735352 86.79956055 C45.19139404 87.91242432 45.59543457 89.02528809 46.01171875 90.171875 C46.35799316 91.10821777 46.70426758 92.04456055 47.06103516 93.00927734 C47.87633581 96.05112395 48.02472681 98.57466661 47.78515625 101.7109375 C46.1328125 104.09765625 46.1328125 104.09765625 43.84765625 106.3984375 C40.51349846 109.87846469 37.35896039 113.38430732 34.34765625 117.1484375 C31.27179037 120.95181253 28.09762459 124.61176402 24.78515625 128.2109375 C20.64334112 132.71235208 16.74445645 137.35898388 12.90234375 142.1171875 C9.953919 145.72927981 6.88683833 149.23027176 3.78515625 152.7109375 C1.92289734 152.49667358 1.92289734 152.49667358 -0.21484375 151.7109375 C-1.41667175 149.75405884 -1.41667175 149.75405884 -2.41870117 147.13916016 C-2.80459915 146.15531342 -3.19049713 145.17146667 -3.58808899 144.1578064 C-3.99472275 143.07448029 -4.40135651 141.99115417 -4.8203125 140.875 C-5.25711838 139.74937653 -5.69392426 138.62375305 -6.14396667 137.46401978 C-7.33111474 134.39725881 -8.50448912 131.32564523 -9.67229462 128.2514801 C-10.89112544 125.05344553 -12.12788754 121.86237363 -13.36376953 118.67089844 C-15.11750618 114.13850445 -16.86661646 109.60438657 -18.60928726 105.06772614 C-22.51857761 94.89317189 -26.51357184 84.75330246 -30.53408813 74.62225342 C-31.55223932 72.05572957 -32.56796269 69.48826027 -33.58276367 66.92041016 C-33.90067368 66.11685089 -34.21858368 65.31329163 -34.54612732 64.48538208 C-35.16548948 62.91828398 -35.7835006 61.35065111 -36.40003967 59.78244019 C-38.05528748 55.58434271 -39.75328412 51.40859145 -41.50097656 47.24804688 C-41.87703033 46.3413324 -42.25308411 45.43461792 -42.64053345 44.50042725 C-43.36511317 42.7562165 -44.09993754 41.01621476 -44.8465271 39.28131104 C-46.24180236 35.90123562 -47.24036923 33.44164206 -47.11157227 29.75463867 C-45.6550341 26.4350958 -42.70108214 25.57909433 -39.52734375 24.2734375 C-38.52815918 23.83729126 -38.52815918 23.83729126 -37.50878906 23.39233398 C-36.1163336 22.78719687 -34.72023165 22.19038878 -33.32080078 21.6015625 C-31.27246813 20.73530728 -29.24077665 19.83831567 -27.2109375 18.9296875 C-17.68861607 14.7109375 -17.68861607 14.7109375 -14.21484375 14.7109375 C-13.22484375 16.6909375 -12.23484375 18.6709375 -11.21484375 20.7109375 C-10.22484375 20.3809375 -9.23484375 20.0509375 -8.21484375 19.7109375 C-8.89612578 13.92004022 -11.60363084 10.10243956 -15.96484375 6.3359375 C-16.70734375 5.7996875 -17.44984375 5.2634375 -18.21484375 4.7109375 C-15.59239239 1.05539924 -13.94568942 -0.9167449 -9.90234375 -2.9765625 C-5.44304252 -3.35446938 -3.59697855 -2.50887521 0 0 Z " fill="#FBFBFB" transform="translate(53.21484375,131.2890625)"/>
<path d="M0 0 C0.94359375 0.39832031 1.8871875 0.79664063 2.859375 1.20703125 C18.15755239 7.57107304 32.52124492 9.77487098 49 11 C49.41958984 12.14275391 49.41958984 12.14275391 49.84765625 13.30859375 C52.64529959 20.51409958 55.80733867 26.26936024 61 32 C61.44859375 32.54914063 61.8971875 33.09828125 62.359375 33.6640625 C64.70369805 36.13249677 66.57450341 36.98245958 69.9375 37.12109375 C72.05944168 37.04203102 74.18022473 36.90010317 76.29296875 36.6875 C79 37 79 37 80.83203125 39.25390625 C82.38094729 42.89567206 82.82737667 46.14893766 82 50 C80.24392354 53.01784991 78.17063565 55.41468217 75 57 C72.6670134 57.04022391 70.33293334 57.04320247 68 57 C67.86464844 57.59425781 67.72929687 58.18851563 67.58984375 58.80078125 C64.8361189 69.4034464 59.21225704 78.81125297 50 85 C47.36320172 86.39714258 44.69272519 87.71438018 42 89 C41.96132812 90.8871875 41.96132812 90.8871875 41.921875 92.8125 C41.44725136 108.92755482 39.56520778 123.92237432 30.25 137.5625 C26.67240769 139.84818398 23.20898369 140.37446474 19 140 C15.9375 138.4375 15.9375 138.4375 14 135 C13.3642813 129.38673914 13.02080482 123.62244227 15.01953125 118.26953125 C16.47864791 113.40387131 16.20966921 108.67258724 16.125 103.625 C16.11597656 102.60277344 16.10695312 101.58054687 16.09765625 100.52734375 C16.0742043 98.01798478 16.04138355 95.50911664 16 93 C15.33758301 92.885354 14.67516602 92.77070801 13.99267578 92.65258789 C2.68122224 90.56824642 -5.31239725 85.50749054 -12 76 C-17.76828193 66.07659973 -16.89913344 55.5691424 -14.1875 44.76171875 C-12.41920724 39.16018608 -10.23155369 33.74378229 -7.95703125 28.33007812 C-4.76781571 20.71139655 -2.17382576 13.04295457 -0.8125 4.875 C-0.65394531 3.94429687 -0.49539062 3.01359375 -0.33203125 2.0546875 C-0.22246094 1.37664063 -0.11289063 0.69859375 0 0 Z " fill="#FCFCFC" transform="translate(172,52)"/>
<path d="M0 0 C3.20092666 -0.31838702 4.68668659 -0.1952605 7.45703125 1.53125 C8.62298828 2.50578125 8.62298828 2.50578125 9.8125 3.5 C10.60269531 4.1496875 11.39289063 4.799375 12.20703125 5.46875 C12.79871094 5.9740625 13.39039063 6.479375 14 7 C14.9590625 5.7934375 14.9590625 5.7934375 15.9375 4.5625 C18 2 18 2 19 1 C25.35294118 1.35294118 25.35294118 1.35294118 27.875 3.875 C29 6 29 6 30 9 C32.31 9.33 34.62 9.66 37 10 C37.226875 10.78375 37.45375 11.5675 37.6875 12.375 C38.7410142 15.2262718 38.7410142 15.2262718 41.5 15.9375 C42.325 16.288125 43.15 16.63875 44 17 C44.70381157 18.98723268 45.3711811 20.98777953 46 23 C47.99704549 24.2098502 47.99704549 24.2098502 50 25 C49.8364502 25.57427734 49.67290039 26.14855469 49.50439453 26.74023438 C48.95992302 29.3207188 48.70765159 31.37205356 49 34 C51.15473809 36.84695708 53.89234671 38.58508646 56.875 40.5 C57.63425781 41.02335937 58.39351563 41.54671875 59.17578125 42.0859375 C60.5742814 43.04818538 61.9822054 43.99697268 63.40185547 44.92773438 C65 46 65 46 66 47 C66.04063832 48.66617115 66.042721 50.33388095 66 52 C62.98693233 52.45103019 60.82350448 52.52070616 58.1953125 50.85888672 C55.57717959 48.71094066 53.07050131 46.45671382 50.56640625 44.17773438 C46.68829946 40.77089753 46.68829946 40.77089753 41.71875 39.8203125 C38.29423848 41.3062356 37.60359435 42.61099625 36 45.9375 C34.23760681 49.58292638 33.63183308 50.73905913 29.8125 52.31640625 C28.884375 52.54199219 27.95625 52.76757812 27 53 C25.76140698 61.4370042 24.80368793 69.87460383 23.99023438 78.36303711 C18.37706655 136.17941613 18.37706655 136.17941613 2.9375 150 C-3.25077227 154.21329176 -8.66161407 154.76153062 -16 154 C-25.18452606 151.93278794 -32.61914986 146.04225504 -37.8203125 138.28515625 C-39.33802892 135.56623211 -40.69948075 132.82862938 -42 130 C-42.4125 129.1440625 -42.825 128.288125 -43.25 127.40625 C-46 121.52430556 -46 121.52430556 -46 118 C-44.94941406 117.41992188 -43.89882813 116.83984375 -42.81640625 116.2421875 C-35.89853016 112.39938064 -29.05666532 108.59441989 -22.6015625 103.99609375 C-21 103 -21 103 -19 103 C-18.731875 104.258125 -18.46375 105.51625 -18.1875 106.8125 C-17.58319122 109.15109221 -17.049772 110.91617348 -15.8125 113 C-12.82708986 114.64712284 -10.32276732 114.35601078 -7 114 C-3.50506636 111.58510534 -3.05794842 108.30255075 -2.109375 104.3203125 C-1.94419373 103.62793488 -1.77901245 102.93555725 -1.60882568 102.22219849 C0.56704564 92.88396806 2.35741046 83.46027776 4.14697266 74.04199219 C4.75586136 70.84421719 5.37560488 67.64866707 5.99609375 64.453125 C6.38866936 62.40376996 6.78061962 60.354295 7.171875 58.3046875 C7.3561908 57.35778046 7.54050659 56.41087341 7.73040771 55.43527222 C8.58567771 50.89049827 9.22550535 46.6498433 9 42 C8.01 41.67 7.02 41.34 6 41 C4.83309261 31.08128718 4.4474175 22.10516499 9 13 C5.7 10.36 2.4 7.72 -1 5 C-0.67 3.35 -0.34 1.7 0 0 Z " fill="#FBFBFB" transform="translate(302,151)"/>
<path d="M0 0 C6.18360524 6.35537205 7.61026205 14.94042793 9.4375 23.3125 C9.69724609 24.44945312 9.95699219 25.58640625 10.22460938 26.7578125 C11.53592549 32.59943779 12.64407601 38.35546417 13.25 44.3125 C12.19296875 44.2609375 11.1359375 44.209375 10.046875 44.15625 C4.055077 44.15625 -1.65986261 45.59535834 -7.5 46.8125 C-20.38295692 49.35341712 -32.76822767 50.43161127 -45.82983398 48.8359375 C-51.1364463 48.23499298 -56.4456279 47.94404683 -61.77734375 47.6640625 C-63.89000712 47.54485719 -66.00263644 47.42504696 -68.11523438 47.3046875 C-71.40395641 47.1191862 -74.69269927 46.93722877 -77.98217773 46.765625 C-81.18545852 46.59704388 -84.38756062 46.4130303 -87.58984375 46.2265625 C-88.55993881 46.17956207 -89.53003387 46.13256165 -90.52952576 46.08413696 C-99.05486159 45.56587414 -106.79265032 43.6328134 -114.375 39.625 C-115.21289062 39.18800781 -116.05078125 38.75101563 -116.9140625 38.30078125 C-117.51992187 37.97464844 -118.12578125 37.64851563 -118.75 37.3125 C-103.27777553 5.64467433 -103.27777553 5.64467433 -92.75 -1.8125 C-88.80367551 -2.96351131 -85.67634279 -2.91297044 -81.75 -1.6875 C-78.75 0.375 -78.75 0.375 -76.75 2.3125 C-77.08 3.529375 -77.41 4.74625 -77.75 6 C-79.3141541 13.17470684 -80.56533526 21.77639531 -77 28.5 C-74.26691807 31.91635241 -72.49627331 33.08564274 -68.1640625 33.6484375 C-63.81045569 33.70941239 -60.49438761 33.62149109 -56.4375 31.9375 C-49.2476481 24.91485395 -45.03307548 14.95692863 -43.37890625 5.1015625 C-43.0625 3.25 -43.0625 3.25 -41.75 0.3125 C-38.8947961 -1.32624837 -35.94827656 -1.99200954 -32.75 -2.6875 C-31.56470703 -2.99300781 -31.56470703 -2.99300781 -30.35546875 -3.3046875 C-19.52855071 -5.85837092 -9.64193521 -5.91664206 0 0 Z " fill="#EEE590" transform="translate(259.75,162.6875)"/>
<path d="M0 0 C4.43928644 1.36593429 8.56372215 3.11833577 12.75390625 5.09765625 C16.6750299 6.67292506 20.63656278 7.12554934 24.83105469 7.37304688 C26.22840851 7.45818542 26.22840851 7.45818542 27.6539917 7.54504395 C28.64989319 7.60236694 29.64579468 7.65968994 30.671875 7.71875 C31.70886536 7.78155151 32.74585571 7.84435303 33.81427002 7.90905762 C37.12599341 8.10930801 40.43796169 8.30503263 43.75 8.5 C47.04772793 8.69537446 50.34538073 8.89179885 53.6428833 9.09094238 C55.6918591 9.21457483 57.74096745 9.33603635 59.79022217 9.45495605 C64.88316267 9.76111699 69.93936043 10.16426593 75.00473022 10.77981567 C88.58191245 12.27810065 101.48869261 10.53246442 114.79833984 7.77880859 C120.31036183 6.6397061 125.3662117 5.67481741 131 6 C133.23244623 10.83813689 134.64302072 15.27300125 135.640625 20.54296875 C135.7719281 21.23385086 135.9032312 21.92473297 136.03851318 22.6365509 C136.31126327 24.08369168 136.57995771 25.53160234 136.84472656 26.98022461 C137.25127029 29.19441852 137.67556711 31.40471002 138.1015625 33.61523438 C138.36565005 35.02844691 138.6287074 36.44185244 138.890625 37.85546875 C139.12813477 39.13059326 139.36564453 40.40571777 139.61035156 41.71948242 C140.16399733 46.38072191 140.16399733 46.38072191 139 49 C136.75220103 50.67447373 134.59381231 52.08981841 132.1875 53.5 C131.49205078 53.92071777 130.79660156 54.34143555 130.08007812 54.77490234 C128.55723969 55.69375284 127.03084485 56.60672776 125.50146484 57.51464844 C122.82329482 59.10492625 120.15522966 60.71129244 117.48828125 62.3203125 C112.66642371 65.22628758 107.8360762 68.11775829 103 71 C101.32457792 68.00492687 100.60233097 65.43897068 100.13037109 62.04785156 C99.99037689 61.06713684 99.85038269 60.08642212 99.70614624 59.07598877 C99.56335236 58.02481873 99.42055847 56.97364868 99.2734375 55.890625 C99.12089508 54.80867859 98.96835266 53.72673218 98.81118774 52.61199951 C98.3258767 49.15888348 97.85032431 45.70450345 97.375 42.25 C97.04751717 39.90746222 96.71939981 37.56501305 96.390625 35.22265625 C95.58638656 29.48277843 94.79015432 23.74183265 94 18 C92.35 18 90.7 18 89 18 C89 19.32 89 20.64 89 22 C74.10747559 22.41917973 59.33815733 21.1380185 44.5 20 C41.92321769 19.80674943 39.34639498 19.61403681 36.76953125 19.421875 C30.51254159 18.95411647 24.25608302 18.4797243 18 18 C17.34 16.35 16.68 14.7 16 13 C12.9668161 13.6362254 12.9668161 13.6362254 12.10774231 15.60084534 C11.86569565 16.29145554 11.62364899 16.98206573 11.37426758 17.69360352 C11.09420364 18.47433731 10.81413971 19.25507111 10.52558899 20.0594635 C10.08946541 21.33133766 10.08946541 21.33133766 9.64453125 22.62890625 C9.18478157 23.92525246 9.18478157 23.92525246 8.71574402 25.24778748 C7.73697598 28.01561808 6.77461352 30.78884157 5.8125 33.5625 C5.15276334 35.43722607 4.49196943 37.31158044 3.83007812 39.18554688 C2.20774154 43.78613735 0.60009776 48.39163005 -1 53 C-4.33229074 53 -4.81181211 52.66240854 -7.3203125 50.69921875 C-7.93777344 50.21646484 -8.55523437 49.73371094 -9.19140625 49.23632812 C-9.82949219 48.72521484 -10.46757812 48.21410156 -11.125 47.6875 C-11.77082031 47.18798828 -12.41664063 46.68847656 -13.08203125 46.17382812 C-17.87244156 42.38267531 -17.87244156 42.38267531 -19 39 C-17.99169217 36.47490051 -16.9209712 34.12105828 -15.703125 31.69921875 C-15.35368835 30.98522415 -15.00425171 30.27122955 -14.64422607 29.53559875 C-13.52204732 27.24822096 -12.38624389 24.96791841 -11.25 22.6875 C-10.49909769 21.16255335 -9.74908702 19.6371673 -9 18.11132812 C-6.02516386 12.06162915 -3.01748026 6.02853288 0 0 Z " fill="#FDFDFB" transform="translate(141,200)"/>
<path d="M0 0 C62.37 0.495 62.37 0.495 126 1 C128.21610269 7.64830806 127 14.99206799 127 22 C83.11 22 39.22 22 -6 22 C-5 14 -5 14 0 0 Z " fill="#EFE68F" transform="translate(131,292)"/>
<path d="M0 0 C23.76 1.65 47.52 3.3 72 5 C72.33 3.68 72.66 2.36 73 1 C73.50508972 4.89519106 74.00317733 8.79124657 74.5 12.6875 C74.64308594 13.79029297 74.78617187 14.89308594 74.93359375 16.02929688 C75.06894531 17.09599609 75.20429688 18.16269531 75.34375 19.26171875 C75.53227539 20.73064575 75.53227539 20.73064575 75.72460938 22.22924805 C75.98432795 24.84232089 76.05025329 27.37635968 76 30 C58.61499794 30.17857481 41.2623274 29.65115731 23.89007568 29.07287598 C20.16833408 28.9497358 16.44646646 28.8305271 12.72460938 28.7109375 C5.48294784 28.47769571 -1.75856784 28.24026889 -9 28 C-7 19 -7 19 0 0 Z " fill="#EEE590" transform="translate(158,217)"/>
<path d="M0 0 C6.25322296 4.03576801 12.186102 8.35437938 18 13 C17.07581951 19.28052236 15.26992092 25.1317318 13.25634766 31.14086914 C12.83662678 32.41837223 12.43347142 33.7014413 12.04736328 34.98950195 C8.83302587 45.67710556 8.83302587 45.67710556 4.29980469 48.94873047 C1.55207225 50.20942813 -1.09242185 51.18470896 -4 52 C-4.99 52.33 -5.98 52.66 -7 53 C-18.63365862 53.67971938 -27.9044973 53.72146967 -37.1875 45.9375 C-41.62216267 41.69021744 -45.9994751 36.90971385 -48 31 C-46.87171941 26.84271998 -43.14959141 23.45416013 -40.375 20.25 C-39.859375 19.64800781 -39.34375 19.04601562 -38.8125 18.42578125 C-37.54530865 16.94739134 -36.27314225 15.47326829 -35 14 C-32.42554349 15.2424551 -30.15944116 16.54959616 -27.75 18.125 C-23.89048028 20.29752282 -20.34772532 21.03477532 -16 20 C-7.58842323 16.39269612 -3.96025362 7.68879027 0 0 Z " fill="#FCFCFC" transform="translate(119,246)"/>
<path d="M0 0 C0.33 0 0.66 0 1 0 C1.88368297 4.48199738 2.75616491 8.96597706 3.6184082 13.45214844 C3.91320024 14.9774825 4.21102657 16.50223344 4.51196289 18.02636719 C4.94438925 20.21923344 5.36580385 22.41397597 5.78515625 24.609375 C5.92156021 25.2886908 6.05796417 25.96800659 6.19850159 26.66790771 C7.37833526 32.95343444 7.37833526 32.95343444 6 36 C3.75220103 37.67447373 1.59381231 39.08981841 -0.8125 40.5 C-1.50794922 40.92071777 -2.20339844 41.34143555 -2.91992188 41.77490234 C-4.44276031 42.69375284 -5.96915515 43.60672776 -7.49853516 44.51464844 C-10.17670518 46.10492625 -12.84477034 47.71129244 -15.51171875 49.3203125 C-20.33357629 52.22628758 -25.1639238 55.11775829 -30 58 C-31.49775019 55.26018612 -32.33223313 52.93163914 -32.77783203 49.84570312 C-32.89780548 49.03806519 -33.01777893 48.23042725 -33.14138794 47.39831543 C-33.26230804 46.53468384 -33.38322815 45.67105225 -33.5078125 44.78125 C-33.63815887 43.88635864 -33.76850525 42.99146729 -33.90280151 42.06945801 C-34.17658169 40.18040155 -34.44702386 38.29085872 -34.71435547 36.40087891 C-35.1236407 33.50960241 -35.54334295 30.61998708 -35.96484375 27.73046875 C-36.22977975 25.89331748 -36.49412269 24.05608056 -36.7578125 22.21875 C-36.88278107 21.35511841 -37.00774963 20.49148682 -37.13650513 19.60168457 C-37.30700882 18.39022766 -37.30700882 18.39022766 -37.48095703 17.15429688 C-37.63179245 16.09317688 -37.63179245 16.09317688 -37.78567505 15.01062012 C-38 13 -38 13 -38 9 C-7.94403467 2.82699017 -7.94403467 2.82699017 0 3 C0 2.01 0 1.02 0 0 Z " fill="#EDE490" transform="translate(274,213)"/>
<path d="M0 0 C1.00818283 -0.00571014 2.01636566 -0.01142029 3.05509949 -0.01730347 C4.17045074 -0.01842133 5.285802 -0.01953918 6.43495178 -0.02069092 C7.60231369 -0.02565582 8.7696756 -0.03062073 9.97241211 -0.03573608 C13.18313448 -0.0478688 16.39382039 -0.05530902 19.60456157 -0.05974674 C21.60850417 -0.06267379 23.61244099 -0.06677786 25.61638069 -0.07125092 C31.880518 -0.0849308 38.14464218 -0.09459531 44.40879339 -0.09845281 C51.65064035 -0.10293634 58.89229883 -0.12049567 66.13408846 -0.1494534 C71.72475574 -0.17103627 77.31536987 -0.18115524 82.9060784 -0.18249393 C86.24850388 -0.18354432 89.5907523 -0.1895014 92.93313408 -0.20731354 C96.65914775 -0.22427138 100.38469699 -0.22251895 104.11073303 -0.21600342 C105.22406006 -0.2252182 106.33738708 -0.23443298 107.48445129 -0.243927 C108.49545395 -0.23835785 109.5064566 -0.2327887 110.5480957 -0.22705078 C111.42987456 -0.22851734 112.31165342 -0.2299839 113.22015285 -0.2314949 C113.9188905 -0.10875576 114.61762815 0.01398338 115.33753967 0.14044189 C117.33753967 3.14044189 117.33753967 3.14044189 117.33753967 10.14044189 C76.08753967 10.14044189 34.83753967 10.14044189 -7.66246033 10.14044189 C-5.41308852 0.01826875 -5.41308852 0.01826875 0 0 Z " fill="#FEFEFD" transform="translate(139.66246032714844,282.85955810546875)"/>
<path d="M0 0 C7.97895466 -0.20429756 15.31777299 -0.23741628 23 2 C23.97195312 2.23332031 24.94390625 2.46664063 25.9453125 2.70703125 C43.85756943 7.43327736 57.47966437 19.49078619 66.8984375 35.234375 C86.19932212 69.02419134 83.9637739 108.09802301 75.65429688 144.86889648 C75 147 75 147 73 150 C71.68 149.67 70.36 149.34 69 149 C68.0174654 145.24910778 68.04529741 142.97975641 69.25 139.3125 C73.19911881 125.4450874 74.29008197 112.17894878 74.3125 97.8125 C74.31599457 97.09424042 74.31948914 96.37598083 74.3230896 95.63595581 C74.35834534 82.55458465 73.75905773 69.38982191 69.375 56.9375 C69.11630127 56.18855469 68.85760254 55.43960938 68.59106445 54.66796875 C64.31383038 42.82215828 57.995002 32.88316361 49 24 C48.38769531 23.36578125 47.77539062 22.7315625 47.14453125 22.078125 C34.5713689 9.96070628 17.67704885 6.75874585 1 5 C0.67 3.35 0.34 1.7 0 0 Z " fill="#020202" transform="translate(220,8)"/>
<path d="M0 0 C28.66391083 -0.2573062 57.37975742 0.36951345 86 2 C86.495 6.95 86.495 6.95 87 12 C57.31827407 12.15147305 27.67231032 11.74667305 -2 11 C-1.85892253 9.54119891 -1.71197585 8.08296449 -1.5625 6.625 C-1.48128906 5.81289062 -1.40007812 5.00078125 -1.31640625 4.1640625 C-1 2 -1 2 0 0 Z " fill="#FDFDF9" transform="translate(148,245)"/>
<path d="M0 0 C2.30251658 2.2367304 3.78314432 4.24237517 5.1875 7.125 C5.1875 8.115 5.1875 9.105 5.1875 10.125 C-6.47972502 11.87136808 -18.15575055 13.45421089 -29.875 14.8125 C-30.99825684 14.94374268 -32.12151367 15.07498535 -33.27880859 15.21020508 C-34.85976318 15.39039185 -34.85976318 15.39039185 -36.47265625 15.57421875 C-37.40730713 15.68080811 -38.34195801 15.78739746 -39.30493164 15.8972168 C-41.8125 16.125 -41.8125 16.125 -45.8125 16.125 C-45.34647898 13.93866737 -44.86615997 11.758467 -44.35546875 9.58203125 C-43.89313873 7.48990475 -43.55779683 5.37037814 -43.25 3.25 C-41.8125 0.125 -41.8125 0.125 -40.03515625 -0.90234375 C-37.64536583 -1.74654037 -35.28877414 -2.33651466 -32.8125 -2.875 C-31.62720703 -3.18050781 -31.62720703 -3.18050781 -30.41796875 -3.4921875 C-19.65922623 -6.02979074 -9.43060389 -6.28706926 0 0 Z " fill="#EBE38E" transform="translate(259.8125,162.875)"/>
<path d="M0 0 C4.38237918 0.56567802 7.88987351 1.66713496 11.875 3.5625 C13.32519531 4.24505859 13.32519531 4.24505859 14.8046875 4.94140625 C15.89136719 5.46541016 15.89136719 5.46541016 17 6 C15.33100899 10.77006924 13.65855538 15.53890482 11.98291016 20.30664062 C11.4136015 21.92805242 10.84523311 23.54979468 10.27783203 25.171875 C9.4611433 27.50608869 8.64105784 29.83908507 7.8203125 32.171875 C7.56814972 32.89493835 7.31598694 33.61800171 7.05618286 34.36297607 C5.8839182 37.68500724 4.68865786 40.90295945 3 44 C-3.09425346 40.21168028 -8.49400055 35.58506716 -14 31 C-12.68106727 26.80240081 -11.09759162 22.90354015 -9.1796875 18.9453125 C-8.37724609 17.28242188 -8.37724609 17.28242188 -7.55859375 15.5859375 C-7.00300781 14.44382813 -6.44742188 13.30171875 -5.875 12.125 C-5.31167969 10.9596875 -4.74835938 9.794375 -4.16796875 8.59375 C-2.78187239 5.72758466 -1.39245478 2.86308022 0 0 Z " fill="#EDE490" transform="translate(136,210)"/>
<path d="M0 0 C1.1577506 3.47325181 1.06866652 6.36067448 1 10 C-10.53033247 11.87301484 -22.07394764 13.42286218 -33.6875 14.6875 C-34.86795898 14.81874268 -36.04841797 14.94998535 -37.26464844 15.08520508 C-43.55105929 15.75147168 -49.67887751 16.14136696 -56 16 C-55.38881631 12.43476181 -54.37977501 9.33726069 -53 6 C-47.9324776 5.30305727 -42.86451569 4.60943013 -37.79614258 3.91870117 C-36.07662083 3.68390639 -34.35721654 3.44824956 -32.63793945 3.21166992 C-8.68098175 -0.08336962 -8.68098175 -0.08336962 0 0 Z " fill="#FDFDFB" transform="translate(266,173)"/>
<path d="M0 0 C0.33 0 0.66 0 1 0 C1.495 3.96 1.495 3.96 2 8 C-4.87835347 12.9666585 -11.92491312 17.47367868 -19.25 21.75 C-20.20390625 22.31332031 -21.1578125 22.87664062 -22.140625 23.45703125 C-26.69267599 26.13136121 -31.23302531 28.72848857 -36 31 C-36.34171006 29.62705778 -36.67291117 28.25149882 -37 26.875 C-37.185625 26.10929687 -37.37125 25.34359375 -37.5625 24.5546875 C-38.0573244 21.66526648 -38.06784992 18.92602801 -38 16 C-29.8933632 12.46223526 -21.64982968 9.30650256 -13.375 6.1875 C-12.29541016 5.77830322 -11.21582031 5.36910645 -10.10351562 4.94750977 C-8.57887695 4.37601196 -8.57887695 4.37601196 -7.0234375 3.79296875 C-6.10481934 3.4477417 -5.18620117 3.10251465 -4.23974609 2.74682617 C-2 2 -2 2 0 2 C0 1.34 0 0.68 0 0 Z " fill="#ECE38F" transform="translate(279,240)"/>
<path d="M0 0 C3.20092666 -0.31838702 4.68668659 -0.1952605 7.45703125 1.53125 C8.23433594 2.1809375 9.01164062 2.830625 9.8125 3.5 C10.60269531 4.1496875 11.39289063 4.799375 12.20703125 5.46875 C12.79871094 5.9740625 13.39039063 6.479375 14 7 C14.639375 6.195625 15.27875 5.39125 15.9375 4.5625 C18 2 18 2 19 1 C25.21967963 1.34553776 25.21967963 1.34553776 27.9375 3.625 C31.00836651 10.48928985 27.83876473 17.62288953 25.625 24.3125 C25.30789063 25.31345703 24.99078125 26.31441406 24.6640625 27.34570312 C22.27114292 34.72885708 22.27114292 34.72885708 20 37 C19.01 37 18.02 37 17 37 C15.13697364 31.77496057 17.15653321 27.48737251 18.875 22.5 C19.43719422 20.82368574 19.9971585 19.14662165 20.5546875 17.46875 C20.8134668 16.69144531 21.07224609 15.91414062 21.33886719 15.11328125 C22.07321141 12.76598302 22.61179203 10.42878831 23 8 C22.34 8 21.68 8 21 8 C20.61714844 9.08861328 20.61714844 9.08861328 20.2265625 10.19921875 C18.93198926 13.1552984 17.39544896 15.30564666 15.375 17.8125 C14.74335938 18.60269531 14.11171875 19.39289063 13.4609375 20.20703125 C12.97882813 20.79871094 12.49671875 21.39039063 12 22 C10.68 21.67 9.36 21.34 8 21 C7.375 19.25 7.375 19.25 7 17 C7.66 15.68 8.32 14.36 9 13 C5.7 10.36 2.4 7.72 -1 5 C-0.67 3.35 -0.34 1.7 0 0 Z " fill="#070707" transform="translate(302,151)"/>
<path d="M0 0 C1.1577506 3.47325181 1.06866652 6.36067448 1 10 C-11.56081447 14.99095164 -24.21704434 19.6100288 -37 24 C-38 23 -38 23 -38.09765625 20.71484375 C-38.08605469 19.79832031 -38.07445312 18.88179687 -38.0625 17.9375 C-38.05347656 17.01839844 -38.04445312 16.09929687 -38.03515625 15.15234375 C-38.02355469 14.44207031 -38.01195312 13.73179687 -38 13 C-33.07272236 11.14234222 -28.14309893 9.29110552 -23.21118164 7.44580078 C-21.5334359 6.8170316 -19.85634697 6.18650698 -18.17993164 5.55419922 C-15.77139719 4.64609833 -13.36057805 3.74431853 -10.94921875 2.84375 C-10.19912033 2.55939087 -9.44902191 2.27503174 -8.67619324 1.98205566 C-5.65027662 0.85778022 -3.25571279 0 0 0 Z " fill="#FDFCFA" transform="translate(278,232)"/>
<path d="M0 0 C1.65 1.32 3.3 2.64 5 4 C4.01 8.29 3.02 12.58 2 17 C-5.72329019 15.56006454 -12.7282249 12.94467554 -20 10 C-17.84536138 5.17771358 -14.3250652 2.70504782 -10.125 -0.375 C-6.70270791 -1.3815565 -3.34966696 -1.08536695 0 0 Z " fill="#EBE28E" transform="translate(178,161)"/>
<path d="M0 0 C4.95021409 0.79647029 9.58170153 2.45320707 14.3125 4.0625 C15.14845703 4.34416016 15.98441406 4.62582031 16.84570312 4.91601562 C18.89805624 5.60795182 20.94915483 6.30360709 23 7 C23.33 10.96 23.66 14.92 24 19 C20.16617309 17.81264249 16.33988724 16.60378607 12.51928711 15.37451172 C11.21844779 14.95934678 9.91569637 14.55012449 8.61108398 14.14697266 C6.73711058 13.56674658 4.87035396 12.96337134 3.00390625 12.359375 C1.87799072 12.00327148 0.7520752 11.64716797 -0.40795898 11.28027344 C-3 10 -3 10 -3.99633789 8.05566406 C-4.0023603 4.67508294 -1.964631 2.619508 0 0 Z " fill="#FDFDFA" transform="translate(157,171)"/>
<path d="M0 0 C1.65 0.33 3.3 0.66 5 1 C4.75467529 1.86141602 4.75467529 1.86141602 4.50439453 2.74023438 C3.95992302 5.3207188 3.70765159 7.37205356 4 10 C6.15473809 12.84695708 8.89234671 14.58508646 11.875 16.5 C12.63425781 17.02335937 13.39351563 17.54671875 14.17578125 18.0859375 C15.5742814 19.04818538 16.9822054 19.99697268 18.40185547 20.92773438 C20 22 20 22 21 23 C21.04063832 24.66617115 21.042721 26.33388095 21 28 C17.99574602 28.44507466 15.82510131 28.51434887 13.1953125 26.875 C10.57618976 24.75317905 8.07509644 22.51584408 5.56640625 20.265625 C1.6280421 16.81199023 1.6280421 16.81199023 -3.40625 15.6875 C-4.2621875 15.790625 -5.118125 15.89375 -6 16 C-7 15 -7 15 -7.375 12.75 C-6.84904022 8.8929616 -4.76869583 7.63685317 -2 5 C-0.680982 2.33466965 -0.680982 2.33466965 0 0 Z " fill="#020202" transform="translate(347,175)"/>
<path d="M0 0 C0.46148437 0.30292969 0.92296875 0.60585937 1.3984375 0.91796875 C6.75764358 4.36014657 12.27180413 7.21546034 18 10 C16.68 13.96 15.36 17.92 14 22 C10.66770926 22 10.18818789 21.66240854 7.6796875 19.69921875 C7.06222656 19.21646484 6.44476563 18.73371094 5.80859375 18.23632812 C5.17050781 17.72521484 4.53242188 17.21410156 3.875 16.6875 C3.22917969 16.18798828 2.58335937 15.68847656 1.91796875 15.17382812 C-2.87244156 11.38267531 -2.87244156 11.38267531 -4 8 C-3.22265625 5.95703125 -3.22265625 5.95703125 -2.0625 3.8125 C-1.68222656 3.09707031 -1.30195312 2.38164062 -0.91015625 1.64453125 C-0.60980469 1.10183594 -0.30945313 0.55914062 0 0 Z " fill="#EAE18E" transform="translate(126,231)"/>
<path d="M0 0 C4.42323682 0.58265272 7.5155864 2.26766211 11.3125 4.5625 C12.38113281 5.20316406 13.44976562 5.84382812 14.55078125 6.50390625 C15.35902344 6.99761719 16.16726562 7.49132812 17 8 C16.01 10.97 15.02 13.94 14 17 C9.57676318 16.41734728 6.4844136 14.73233789 2.6875 12.4375 C1.61886719 11.79683594 0.55023438 11.15617188 -0.55078125 10.49609375 C-1.35902344 10.00238281 -2.16726562 9.50867188 -3 9 C-2.5020163 5.26512223 -2.12508244 3.18762365 0 0 Z " fill="#FDFDFB" transform="translate(130,224)"/>
<path d="M0 0 C1.32 0.33 2.64 0.66 4 1 C3.51578947 6.44736842 3.51578947 6.44736842 1.25 8.875 C-1.36304771 10.18152386 -3.11533524 10.24038873 -6 10 C-6.433125 10.928125 -6.433125 10.928125 -6.875 11.875 C-8 14 -8 14 -10 16 C-13.125 16.125 -13.125 16.125 -16 16 C-16.625 14.125 -16.625 14.125 -17 12 C-16.34 11.34 -15.68 10.68 -15 10 C-13.68 10 -12.36 10 -11 10 C-11 7.36 -11 4.72 -11 2 C-9.3125 1.3125 -9.3125 1.3125 -7 1 C-4.25 2.4375 -4.25 2.4375 -2 4 C-1.34 2.68 -0.68 1.36 0 0 Z " fill="#111111" transform="translate(73,202)"/>
<path d="M0 0 C2.375 0.3125 2.375 0.3125 5 1 C5.66 1.99 6.32 2.98 7 4 C11.34586828 4.39507893 13.32003497 4.45331002 17 2 C19.1875 2.375 19.1875 2.375 21 3 C20.875 5.3125 20.875 5.3125 20 8 C15.70697094 10.96423435 12.14795372 11.64349422 7 11 C3.29609979 8.97333762 1.34636989 7.51955484 -1 4 C-0.625 1.8125 -0.625 1.8125 0 0 Z " fill="#101010" transform="translate(175,106)"/>
<path d="M0 0 C5.1385765 0.24469412 9.51931865 2.17948881 13 6 C13 7.32 13 8.64 13 10 C9.28400809 10.20086443 8.22791555 10.1519437 5 8 C5 10.31 5 12.62 5 15 C3.68 15.33 2.36 15.66 1 16 C-0.74511597 10.76465209 -1.2857653 6.52479577 -1 1 C-0.67 0.67 -0.34 0.34 0 0 Z " fill="#0B0B0B" transform="translate(34,176)"/>
<path d="M0 0 C4.41150719 0.35322119 6.33768201 1.88599944 9.3125 5.0625 C10.00988281 5.79597656 10.70726563 6.52945313 11.42578125 7.28515625 C11.94527344 7.85105469 12.46476562 8.41695312 13 9 C12.34 10.32 11.68 11.64 11 13 C6.125 11.125 6.125 11.125 5 10 C4.34 11.65 3.68 13.3 3 15 C1.68 15 0.36 15 -1 15 C-1.02685412 12.68756208 -1.04632841 10.3750373 -1.0625 8.0625 C-1.07410156 6.77472656 -1.08570313 5.48695313 -1.09765625 4.16015625 C-1 1 -1 1 0 0 Z " fill="#0C0C0C" transform="translate(59,163)"/>
<path d="M0 0 C3.46007099 0 6.00973048 0.1665605 8.7265625 2.453125 C11.54162396 5.6426035 13.97965266 8.80523872 15 13 C14.625 15.3125 14.625 15.3125 14 17 C11.75 17 11.75 17 9 16 C7.82249558 14.04042176 6.95612766 12.02436222 6.04296875 9.9296875 C4.60841431 7.27549315 2.60268093 6.40685456 0 5 C-0.875 2.875 -0.875 2.875 -1 1 C-0.67 0.67 -0.34 0.34 0 0 Z " fill="#0F0F0F" transform="translate(40,130)"/>
<path d="M0 0 C2.0625 0.4375 2.0625 0.4375 4 1 C3.59355312 6.89347971 2.76539633 10.23788111 -1 15 C-1.474375 15.61875 -1.94875 16.2375 -2.4375 16.875 C-4.63793076 18.45931015 -6.36138264 18.21394195 -9 18 C-8.56221172 13.03839948 -6.11954731 10.72823947 -3 7 C-1.74443113 3.82078213 -1.74443113 3.82078213 -1 1 C-0.67 0.67 -0.34 0.34 0 0 Z " fill="#0B0B0B" transform="translate(342,167)"/>
<path d="M0 0 C1.32 0 2.64 0 4 0 C5.80628351 5.09043535 4.04224843 9.26127636 2 14 C0.3125 16.5625 0.3125 16.5625 -1 18 C-2.65 17.67 -4.3 17.34 -6 17 C-5.5316944 14.47114975 -4.91535229 12.86950145 -3.5 10.6875 C-1.69797214 7.45886675 -1.42052739 4.64457071 -1 1 C-0.67 0.67 -0.34 0.34 0 0 Z " fill="#090909" transform="translate(335,161)"/>
<path d="M0 0 C2 2 2 2 2.3125 4.875 C1.9736202 8.26379801 1.27183419 9.53884629 -1 12 C-5.75 11.25 -5.75 11.25 -8 9 C-8.333728 5.86295684 -8.52849028 3.83445834 -6.8125 1.125 C-4.38241919 -0.38332602 -2.80984248 -0.36023622 0 0 Z " fill="#0B0B0B" transform="translate(211,81)"/>
<path d="M0 0 C2 2 2 2 2.375 4.875 C2 8 2 8 0.25 10.4375 C-2 12 -2 12 -4.125 11.875 C-6 11 -6 11 -8 9 C-8.333728 5.86295684 -8.52849028 3.83445834 -6.8125 1.125 C-4.38241919 -0.38332602 -2.80984248 -0.36023622 0 0 Z " fill="#0A0A0A" transform="translate(178,75)"/>
<path d="M0 0 C1.65 0 3.3 0 5 0 C4.56179109 4.55737263 4.14958831 7.57653445 1 11 C-0.32 10.67 -1.64 10.34 -3 10 C-2.49287967 6.28111761 -1.88391785 3.26545761 0 0 Z " fill="#0E0E0E" transform="translate(43,218)"/>
<path d="M0 0 C1.91015625 0.23046875 1.91015625 0.23046875 3.91015625 2.23046875 C3.58015625 3.55046875 3.25015625 4.87046875 2.91015625 6.23046875 C-0.05984375 6.23046875 -3.02984375 6.23046875 -6.08984375 6.23046875 C-6.47203142 4.57432218 -6.80379477 2.90589851 -7.08984375 1.23046875 C-5.19495423 -0.66442077 -2.51845229 0.05027763 0 0 Z " fill="#191919" transform="translate(36.08984375,198.76953125)"/>
<path d="M0 0 C1.9375 0.25 1.9375 0.25 4 1 C6 4 6 4 5.625 6.6875 C5.41875 7.450625 5.2125 8.21375 5 9 C3.68 9.33 2.36 9.66 1 10 C-0.5625 8.3125 -0.5625 8.3125 -2 6 C-1.58974359 1.58974359 -1.58974359 1.58974359 0 0 Z " fill="#1D1D1D" transform="translate(66,187)"/>
<path d="M0 0 C-0.1875 1.8125 -0.1875 1.8125 -1 4 C-3.25 5.8125 -3.25 5.8125 -6 7 C-8.8125 6.6875 -8.8125 6.6875 -11 6 C-10.875 4.1875 -10.875 4.1875 -10 2 C-6.45371784 -0.28538184 -4.05371308 -1.71503246 0 0 Z " fill="#0A0A0A" transform="translate(43,210)"/>
<path d="M0 0 C0.99 0.33 1.98 0.66 3 1 C3.33119204 5.80228456 3.43284049 8.16417008 1.1875 12.5 C0.465625 13.325 -0.25625 14.15 -1 15 C-1.99 15 -2.98 15 -4 15 C-3.79503906 14.25234375 -3.59007812 13.5046875 -3.37890625 12.734375 C-3.10949219 11.74953125 -2.84007812 10.7646875 -2.5625 9.75 C-2.29566406 8.77546875 -2.02882813 7.8009375 -1.75390625 6.796875 C-1.14455416 4.53627347 -0.55761745 2.27377991 0 0 Z " fill="#EEEEEE" transform="translate(331,160)"/>
<path d="M0 0 C4.75 0.75 4.75 0.75 7 3 C7.125 5.625 7.125 5.625 7 8 C4.625 8.625 4.625 8.625 2 9 C0 7 0 7 -0.125 3.375 C-0.08375 2.26125 -0.0425 1.1475 0 0 Z " fill="#0E0E0E" transform="translate(49,196)"/>
<path d="M0 0 C-0.125 3.25 -0.125 3.25 -1 7 C-5.92307692 11 -5.92307692 11 -8 11 C-7.51282051 4.66666667 -7.51282051 4.66666667 -5.125 1.5625 C-3 0 -3 0 0 0 Z " fill="#666666" transform="translate(235,45)"/>
<path d="M0 0 C5.625 -0.25 5.625 -0.25 9 2 C8.67 3.32 8.34 4.64 8 6 C4.625 6.125 4.625 6.125 1 6 C0.34 5.34 -0.32 4.68 -1 4 C-0.625 1.875 -0.625 1.875 0 0 Z " fill="#161616" transform="translate(79,194)"/>
<path d="M0 0 C1.67542976 0.28604898 3.34385343 0.61781233 5 1 C4.45276317 4.37462715 3.9451 6.08235 2 9 C0.68 8.67 -0.64 8.34 -2 8 C-1.125 1.125 -1.125 1.125 0 0 Z " fill="#0D0D0D" transform="translate(75,176)"/>
<path d="M0 0 C-0.25 1.875 -0.25 1.875 -1 4 C-2.8125 5.3125 -2.8125 5.3125 -5 6 C-7.25 5.625 -7.25 5.625 -9 5 C-9 3.68 -9 2.36 -9 1 C-5.64919071 -1.10976881 -3.77897651 -1.0497157 0 0 Z " fill="#191919" transform="translate(85,186)"/>
<path d="M0 0 C1.9451 2.91765 2.45276317 4.62537285 3 8 C-0.20062687 9.60031344 -2.72271806 8.03173691 -6 7 C-6 6.01 -6 5.02 -6 4 C-4.02 3.34 -2.04 2.68 0 2 C0 1.34 0 0.68 0 0 Z " fill="#EFEFEF" transform="translate(86,187)"/>
<path d="M0 0 C0.99 0.33 1.98 0.66 3 1 C1.36058473 7.6008036 -0.35157882 11.10886541 -6 15 C-6.66 14.34 -7.32 13.68 -8 13 C-7.401875 12.79375 -6.80375 12.5875 -6.1875 12.375 C-2.41692494 10.00492425 -1.31666862 6.32425058 -0.3125 2.125 C-0.209375 1.42375 -0.10625 0.7225 0 0 Z " fill="#DFDFDF" transform="translate(339,166)"/>
<path d="M0 0 C0.66 0.99 1.32 1.98 2 3 C1.125 5.6875 1.125 5.6875 0 8 C-0.99 8 -1.98 8 -3 8 C-1.125 1.125 -1.125 1.125 0 0 Z " fill="#DDDDDD" transform="translate(346,172)"/>
</svg>
